<?xml version="1.0" standalone="no"?>
<!DOCTYPE svg PUBLIC "-//W3C//DTD SVG 20010904//EN"
 "http://www.w3.org/TR/2001/REC-SVG-20010904/DTD/svg10.dtd">
<svg version="1.0" xmlns="http://www.w3.org/2000/svg"
 width="563.000000pt" height="512.000000pt" viewBox="0 0 563.000000 512.000000"
 preserveAspectRatio="xMidYMid meet">

<g transform="translate(0.000000,512.000000) scale(0.100000,-0.100000)"
fill="#000000" stroke="none">
<path d="M255 4838 c-30 -17 -41 -30 -64 -76 -33 -65 -51 -149 -51 -242 0
-165 53 -293 170 -410 41 -42 219 -202 394 -355 175 -154 394 -346 486 -427
l167 -147 7 -91 c9 -118 54 -296 105 -410 52 -119 152 -268 247 -369 l76 -81
-76 0 -76 0 0 78 c0 47 -5 83 -12 90 -7 7 -41 12 -84 12 -96 0 -104 -8 -104
-106 l0 -74 -490 0 -490 0 0 -290 0 -290 445 0 c245 0 445 -3 444 -7 0 -5 -51
-52 -112 -105 l-112 -97 -53 60 c-30 32 -61 59 -70 59 -17 0 -142 -105 -142
-119 0 -4 25 -36 56 -72 52 -61 54 -65 37 -79 -11 -8 -173 -150 -361 -314
-248 -216 -342 -304 -340 -317 4 -27 349 -419 368 -419 15 0 121 90 587 496
131 114 163 137 163 117 0 -11 98 -113 108 -113 11 0 124 98 135 116 4 8 -13
36 -48 78 l-55 65 188 163 c103 90 194 169 203 176 15 11 22 4 57 -60 100
-182 266 -298 488 -344 109 -23 368 -15 474 15 215 59 382 207 446 394 9 27
20 47 24 45 12 -4 440 -380 440 -386 0 -3 -22 -31 -50 -63 -28 -32 -50 -64
-50 -72 0 -13 92 -100 128 -121 9 -5 33 13 72 55 53 58 60 62 76 49 10 -8 173
-151 362 -317 189 -167 348 -303 352 -303 11 0 380 418 380 429 0 5 -162 152
-360 326 -198 175 -360 319 -360 322 0 3 22 30 50 62 28 32 50 64 50 72 0 21
-115 119 -139 119 -12 0 -21 -3 -21 -7 -1 -5 -23 -32 -49 -61 l-48 -52 -109
95 c-60 53 -110 100 -112 105 -2 6 207 10 499 10 561 0 577 2 703 68 168 88
318 315 286 434 -21 77 18 72 -738 78 l-675 5 -69 129 -70 129 13 44 c9 34 9
53 0 83 -12 41 -63 100 -87 100 -19 0 -18 9 10 104 25 81 39 150 51 238 l6 46
336 294 c890 776 837 725 895 843 72 143 82 318 26 459 -39 101 -91 140 -161
122 -13 -3 -82 -56 -153 -118 -205 -180 -805 -702 -947 -826 l-130 -112 -28
51 c-143 261 -410 485 -699 587 -152 53 -237 67 -425 67 -187 0 -272 -14 -425
-67 -254 -89 -494 -276 -645 -502 l-57 -86 -61 52 c-33 29 -140 123 -236 208
-622 549 -834 734 -861 753 -28 19 -76 22 -105 5z m85 -66 c13 -10 20 -24 16
-30 -10 -16 -81 -36 -101 -29 -14 6 -14 9 -1 36 23 44 51 51 86 23z m96 -176
l-35 -58 -14 29 c-8 15 -27 39 -41 52 -28 27 -33 41 -13 41 7 0 28 11 47 24
l35 24 28 -27 28 -27 -35 -58z m4588 85 c32 -15 58 -21 77 -17 16 3 29 1 29
-4 0 -6 -4 -10 -9 -10 -20 0 -111 -93 -130 -133 -42 -86 -21 -196 53 -284 30
-36 20 -53 -31 -53 -44 0 -179 -28 -223 -46 -32 -14 -30 -10 28 45 121 115
149 241 84 374 l-33 67 48 45 c26 24 50 43 53 42 3 -2 27 -13 54 -26z m-4747
-79 c71 -68 86 -101 81 -178 -3 -53 -10 -72 -42 -119 -38 -54 -39 -55 -53 -35
-29 41 -56 136 -61 212 -5 81 4 168 17 168 4 0 31 -22 58 -48z m573 -278 c162
-142 372 -326 465 -408 94 -82 171 -150 173 -152 2 -1 -4 -16 -12 -33 -9 -17
-32 -77 -51 -133 -19 -57 -37 -102 -40 -101 -4 1 -128 109 -277 240 -150 131
-335 294 -412 361 -161 141 -188 170 -215 226 -41 88 -33 193 20 260 19 24 23
25 38 13 9 -8 149 -130 311 -273z m-419 -36 c12 -24 29 -51 38 -62 15 -18 15
-18 -14 -13 -16 3 -49 9 -72 12 l-42 7 32 49 c18 27 33 49 34 49 2 0 12 -19
24 -42z m33 -139 c58 -11 132 -43 159 -67 38 -34 106 -210 95 -244 -4 -12
-378 312 -378 328 0 5 38 0 124 -17z m4195 -146 c-15 -31 -35 -95 -45 -142
-22 -112 -31 -121 -109 -121 -75 0 -169 -17 -210 -37 l-30 -15 30 30 c23 23
387 341 391 342 0 0 -12 -25 -27 -57z m-3725 -195 l31 -27 -86 -1 -86 0 -12
68 c-7 37 -15 78 -18 92 -5 21 6 14 67 -40 40 -36 87 -77 104 -92z m114 -118
c89 -39 148 -129 167 -254 6 -48 6 -49 -12 -36 -18 15 -339 295 -358 313 -21
20 148 1 203 -23z m3113 -111 c-23 -40 -47 -124 -56 -195 -8 -64 -27 -76 -115
-72 l-65 3 0 42 c0 40 3 43 125 151 69 60 126 109 128 107 2 -1 -6 -18 -17
-36z m-2786 -177 c-3 -7 -5 -22 -5 -33 0 -16 -7 -19 -44 -19 l-43 0 -6 68 c-3
37 -9 76 -13 87 -5 12 16 -1 54 -34 39 -34 61 -60 57 -69z m-15 -122 c0 -5 -4
-10 -9 -10 -6 0 -13 5 -16 10 -3 6 1 10 9 10 9 0 16 -4 16 -10z m315 -357 c33
-201 166 -340 358 -373 225 -40 446 118 489 348 l12 62 317 0 317 0 6 -31 c8
-44 8 -129 -1 -129 -27 0 -257 42 -298 54 -27 9 -51 14 -53 12 -1 -2 18 -22
44 -44 63 -54 160 -100 248 -118 39 -9 72 -16 73 -18 1 -1 8 -68 15 -149 7
-96 15 -146 22 -144 16 5 43 118 51 212 l7 81 80 16 c44 9 107 30 141 46 56
26 148 92 155 112 2 5 -30 0 -70 -11 -88 -22 -274 -52 -285 -46 -4 3 -6 38 -3
79 l5 73 268 3 c303 3 278 12 251 -90 -23 -92 -44 -137 -66 -144 -66 -20 -117
-109 -99 -171 8 -27 4 -37 -40 -96 -71 -94 -223 -233 -323 -296 -324 -202
-736 -242 -1088 -106 -287 111 -526 330 -666 610 -34 69 -79 200 -88 256 l-7
39 111 0 111 0 6 -37z m2182 -268 c49 -34 46 -117 -6 -148 -40 -23 -64 -21
-100 9 -65 54 -27 153 59 154 14 0 35 -7 47 -15z m100 -331 c35 -65 65 -128
66 -139 1 -15 -13 -28 -58 -52 -33 -18 -63 -33 -66 -33 -6 0 -73 320 -67 324
14 12 45 25 52 23 6 -2 38 -57 73 -123z m-193 99 c9 -34 67 -335 64 -338 -5
-4 -58 -16 -58 -13 -6 52 -30 330 -30 346 0 26 16 30 24 5z m-75 -153 c6 -74
11 -150 11 -168 0 -33 0 -33 -42 -30 -36 3 -43 6 -41 23 1 11 5 76 9 145 4 85
12 134 22 152 9 15 19 24 23 20 3 -4 11 -68 18 -142z m-2109 -330 l0 -410 -40
0 -40 0 0 410 0 410 40 0 40 0 0 -410z m1990 343 c-1 -36 -14 -53 -43 -53
l-31 0 29 30 c28 29 45 38 45 23z m-2910 -153 c0 -28 -4 -40 -15 -40 -8 0 -30
-14 -49 -30 -80 -71 -62 -223 32 -269 26 -13 32 -22 32 -48 l0 -33 -70 0 -70
0 0 223 c0 123 3 227 7 230 3 4 35 7 70 7 l63 0 0 -40z m780 -20 c0 -33 -4
-60 -9 -60 -5 0 -22 15 -38 33 -16 17 -39 41 -52 51 l-22 20 -89 -89 -90 -90
-88 88 c-48 48 -92 87 -97 87 -6 0 -57 -47 -115 -105 l-105 -105 110 -110 110
-110 92 92 93 93 93 -93 92 -92 58 57 57 58 0 -63 0 -62 -360 0 c-198 0 -359
3 -359 8 1 4 1 30 0 58 -1 50 -1 51 -41 63 -50 15 -70 44 -70 101 1 61 35 100
89 100 19 0 21 6 21 58 0 32 3 62 7 65 3 4 165 7 360 7 l353 0 0 -60z m440 28
c0 -18 -4 -38 -8 -43 -11 -15 -219 -195 -226 -195 -3 0 -6 61 -6 135 l0 135
120 0 120 0 0 -32z m1677 -37 c-1 -43 -6 -67 -12 -63 -21 12 -135 117 -135
125 0 4 33 7 74 7 l74 0 -1 -69z m1598 37 c-15 -69 -49 -129 -96 -172 -87 -78
-65 -76 -745 -76 l-603 0 -70 62 c-39 34 -69 63 -68 63 1 1 31 -1 67 -5 36 -5
108 -3 160 2 84 9 104 16 179 57 51 28 91 57 100 73 l16 28 533 0 534 0 -7
-32z m256 22 c32 -18 25 -77 -21 -167 -47 -95 -127 -176 -218 -222 -120 -61
-124 -61 -717 -61 l-540 0 -64 58 -65 57 590 5 589 5 52 27 c107 57 173 141
194 251 l12 57 84 0 c46 0 93 -5 104 -10z m-3241 -156 c25 -10 48 -22 52 -28
4 -6 8 -57 8 -113 0 -93 -2 -103 -18 -103 -26 0 -153 44 -234 82 l-70 32 7 60
c4 34 11 89 17 123 l10 62 91 -49 c51 -27 112 -56 137 -66z m1168 14 c18 -127
19 -124 -43 -163 -52 -34 -191 -95 -214 -95 -7 0 -11 39 -11 115 0 85 3 115
13 115 6 0 62 25 122 54 61 30 113 55 116 55 3 1 11 -36 17 -81z m717 -512
c50 -43 98 -86 108 -96 18 -17 15 -21 -69 -116 -48 -54 -88 -100 -89 -101 -4
-6 -562 490 -572 510 -7 12 -13 56 -13 97 0 41 -7 120 -15 175 -8 55 -15 104
-15 108 0 7 149 -122 665 -577z m-3037 367 l-67 -67 -65 66 -65 66 67 66 67
66 65 -65 65 -65 -67 -67z m364 140 c32 -32 58 -64 58 -73 0 -9 -27 -42 -60
-75 l-60 -59 -65 64 -65 64 63 67 c34 37 64 67 67 68 2 0 30 -25 62 -56z
m1028 -79 c36 -7 81 -14 100 -14 19 0 52 -3 73 -6 l38 -7 -3 -101 -3 -101 -95
3 c-52 2 -124 8 -160 15 l-65 12 -3 114 -3 113 28 -7 c15 -4 57 -13 93 -21z
m598 -86 l-3 -113 -95 -17 c-52 -9 -125 -17 -162 -17 l-68 -1 0 104 0 104 31
6 c17 3 48 6 68 7 20 0 72 9 116 18 127 29 116 38 113 -91z m341 -224 c-24
-29 -239 -134 -274 -134 -3 0 -5 44 -5 98 l0 99 83 31 c45 18 109 47 142 65
l60 32 3 -89 c2 -57 -1 -93 -9 -102z m-1383 154 c27 -12 96 -38 154 -58 l105
-35 3 -94 3 -93 -33 7 c-39 9 -174 68 -238 105 l-45 26 -3 82 c-2 45 -1 82 1
82 3 0 26 -10 53 -22z m406 -118 c31 -6 98 -14 149 -18 l94 -7 0 -100 0 -100
-65 2 c-36 1 -109 10 -162 19 l-98 17 0 99 c0 110 -5 104 82 88z m638 -85 c0
-80 -3 -96 -18 -104 -25 -14 -119 -29 -222 -37 l-90 -7 0 105 0 105 108 7 c59
3 123 10 142 15 81 21 80 22 80 -84z m453 10 c15 -13 27 -27 27 -30 0 -3 -16
-5 -35 -5 -32 0 -35 2 -35 30 0 36 7 37 43 5z m-1603 -14 c0 -11 3 -26 6 -34
4 -11 -7 -18 -46 -26 -28 -6 -61 -16 -73 -22 -12 -6 5 14 38 45 66 61 75 65
75 37z m148 -55 c93 -47 225 -92 345 -118 87 -19 133 -22 307 -22 175 0 220 3
309 23 112 24 259 76 329 117 24 14 46 23 49 20 12 -11 -30 -153 -67 -231 -83
-174 -241 -280 -471 -316 -96 -15 -325 -6 -404 16 -172 47 -334 175 -404 320
-48 99 -85 225 -66 225 3 0 36 -15 73 -34z m-752 -322 c142 -163 263 -303 268
-311 6 -11 1 -23 -17 -40 l-25 -25 -270 308 -271 309 27 28 c14 15 26 27 27
27 1 0 118 -133 261 -296z m2300 281 c87 -26 141 -101 151 -212 7 -79 13 -80
-112 31 -49 45 -114 102 -144 128 -30 26 -50 51 -47 57 10 16 94 14 152 -4z
m819 -11 c14 -9 25 -21 25 -27 0 -5 -29 -42 -65 -82 -35 -40 -155 -175 -266
-301 -111 -126 -205 -230 -209 -232 -3 -1 -16 9 -29 22 -20 21 -21 27 -10 43
22 31 520 593 525 593 3 0 16 -7 29 -16z m-2737 -81 c-17 -29 -23 -57 -26
-130 -3 -51 -7 -93 -10 -93 -3 0 -26 10 -51 22 -25 12 -66 25 -90 28 l-44 5
119 103 c65 56 120 102 121 102 1 0 -7 -17 -19 -37z m2222 -152 c0 -4 -20 -11
-45 -17 l-45 -10 0 54 0 53 45 -37 c25 -20 45 -39 45 -43z m590 -73 c44 -39
79 -73 77 -74 -5 -6 -191 -53 -195 -50 -6 7 22 196 29 196 4 0 44 -32 89 -72z
m-174 -53 l-11 -90 -62 -17 c-139 -37 -138 -43 -23 86 56 64 104 115 105 114
1 -2 -3 -43 -9 -93z m-340 41 c18 -14 18 -16 -21 -56 l-40 -40 -50 44 -50 44
25 11 c37 15 113 13 136 -3z m677 -149 c-4 -7 -72 -85 -151 -175 -103 -116
-148 -160 -155 -153 -8 8 2 25 34 59 25 26 94 102 153 170 59 67 112 120 117
116 5 -3 6 -11 2 -17z m-113 8 c0 -9 -193 -225 -197 -221 -6 6 18 170 25 178
4 3 41 15 82 26 87 23 90 24 90 17z m-254 -134 c-13 -144 -8 -141 -101 -60
-44 39 -81 74 -83 78 -1 5 39 19 90 33 51 14 95 26 97 27 2 0 0 -35 -3 -78z
m559 -25 l50 -44 -71 -21 c-39 -11 -85 -24 -103 -27 -29 -6 -33 -5 -28 12 3
10 11 56 17 101 l12 83 37 -30 c20 -16 58 -49 86 -74z m-209 -41 l-11 -79 -74
-23 c-41 -13 -76 -21 -78 -19 -3 2 35 49 84 104 48 55 89 100 89 99 1 -1 -3
-38 -10 -82z m377 -108 l48 -42 -98 -110 c-54 -61 -123 -138 -153 -172 l-55
-62 -49 43 -49 44 149 170 c82 94 151 171 154 171 3 0 27 -19 53 -42z m-4487
-69 c44 -51 110 -128 148 -170 l67 -77 -33 -30 c-18 -17 -37 -30 -43 -30 -12
0 -295 324 -295 338 0 9 59 61 70 61 3 0 42 -42 86 -92z m4312 74 c-36 -52
-173 -198 -176 -188 -1 6 4 45 10 86 l13 74 70 22 c91 29 100 29 83 6z m-235
-138 c-6 -48 -13 -90 -15 -95 -2 -4 -37 21 -78 57 -41 36 -73 68 -71 72 4 8
138 50 162 51 13 1 14 -8 2 -85z"/>
<path d="M2590 2447 c-71 -18 -120 -96 -106 -170 25 -135 216 -161 278 -37 58
116 -45 240 -172 207z"/>
</g>
</svg>
